<svg width="153" height="18" viewBox="0 0 153 18" fill="none" xmlns="http://www.w3.org/2000/svg">
<g clip-path="url(#clip0_11541_682335)">
<path d="M89.5801 5.79725e-05C87.9579 5.79725e-05 86.5473 0.910054 85.835 2.11649C85.1226 3.32292 83.1125 6.7423 82.3931 7.94874C81.6667 9.16206 82.6188 10.4926 83.8884 10.4926H95.829C95.829 10.4926 94.0305 13.5397 93.6849 14.1188C93.3393 14.6979 92.7751 15.0012 92.1615 15.0012H90.3066C89.6929 15.0012 89.432 14.3463 89.6577 13.9533C89.8834 13.5604 90.37 12.7469 90.37 12.7469H79.5437C79.5437 12.7469 78.7044 14.167 77.9709 15.4079C77.2374 16.6489 78.2178 17.9932 79.452 17.9932H99.687C101.295 17.9932 102.727 17.1314 103.496 15.8216C104.264 14.5117 106.077 11.4233 106.86 10.1134C107.643 8.80358 106.655 7.50063 105.407 7.50063H93.4663C93.4663 7.50063 95.42 4.19156 95.6739 3.76413C95.9278 3.33671 96.5061 2.97823 97.1479 2.97823H99.0099C99.6165 2.97823 99.8704 3.62625 99.68 3.96406C99.4895 4.30186 98.9323 5.23254 98.9323 5.23254H109.745C109.745 5.23254 110.767 3.50216 111.367 2.48876C111.966 1.46846 111.219 -0.00683594 109.836 -0.00683594H89.566L89.5801 5.79725e-05Z" fill="white"/>
<path d="M81.0087 5.79725e-05H60.7949C59.3279 5.79725e-05 57.8044 0.772176 57.0216 2.09581C56.2316 3.41944 49.8205 14.2842 49.1222 15.4631C48.424 16.642 49.3832 17.9932 50.6245 17.9932H70.8736C72.5028 17.9932 73.9346 17.0901 74.6469 15.8905C75.3593 14.691 81.8551 3.68141 82.5321 2.53702C83.2092 1.38573 82.3417 -0.00683594 81.0016 -0.00683594L81.0087 5.79725e-05ZM70.8242 4.05368C70.535 4.54315 65.1536 13.65 64.8574 14.1602C64.5612 14.6703 63.9758 15.015 63.3551 15.015H61.472C60.8725 15.015 60.5904 14.367 60.8231 13.974C61.0559 13.5811 66.4866 4.38458 66.8181 3.82618C67.1496 3.26088 67.7773 2.99891 68.3134 2.99891H70.1965C70.7396 2.99891 71.1134 3.578 70.8172 4.06057L70.8242 4.05368Z" fill="white"/>
<path d="M52.2202 0H29.3827L20.5171 15.008H0V18C0 18 40.5334 18 42.0639 18C43.5944 18 45.0473 17.221 45.8584 15.8629C46.6624 14.4979 47.932 12.347 48.475 11.4163C49.0181 10.4925 48.4468 9.30678 47.4312 9.00345C48.9123 9.00345 50.4146 8.14171 51.1481 6.9077C51.8816 5.67369 53.0454 3.68135 53.7083 2.55764C54.3784 1.43393 53.5602 0.00689391 52.2202 0.00689391V0ZM40.0961 11.5611C39.8281 12.023 38.9112 13.5672 38.5515 14.1808C38.1918 14.7874 37.5853 15.0218 37.0633 15.0218C36.5414 15.0218 31.3293 15.0218 31.3293 15.0218L33.9953 10.5063H39.4613C40.0326 10.5063 40.3641 11.0992 40.0891 11.568L40.0961 11.5611ZM44.5254 4.04673C44.2574 4.51551 43.3405 6.05285 42.9808 6.65952C42.6211 7.27308 42.0145 7.50057 41.4926 7.50057H35.7585L38.4246 2.98506H43.8906C44.4619 2.98506 44.7863 3.57794 44.5183 4.04673H44.5254Z" fill="white"/>
<path d="M115.887 0L105.258 18H131.022L132.786 15.008H117.833L120.499 10.4994H135.452L137.222 7.50057H122.27L124.936 2.98506H152.999V0H115.887Z" fill="white"/>
</g>
<defs>
<clipPath id="clip0_11541_682335">
<rect width="153" height="18" fill="white"/>
</clipPath>
</defs>
</svg>
